{
  "accessors": [
    {
      "bufferView": 2,
      "componentType": 5126,
      "count": 14070,
      "max": [
        0.40409719944000244,
        0.37034326791763306,
        0.3861023485660553
      ],
      "min": [
        -0.40283632278442383,
        -0.09907108545303345,
        -0.37340816855430603
      ],
      "type": "VEC3"
    },
    {
      "bufferView": 2,
      "byteOffset": 168840,
      "componentType": 5126,
      "count": 14070,
      "max": [
        0.999661922454834,
        0.9999922513961792,
        0.9999405145645142
      ],
      "min": [
        -0.9999171495437622,
        -0.9999794960021973,
        -0.9996719360351563
      ],
      "type": "VEC3"
    },
    {
      "bufferView": 3,
      "componentType": 5126,
      "count": 14070,
      "max": [
        0.9999927878379822,
        0.9996784329414368,
        0.9991781711578369,
        1.0
      ],
      "min": [
        -0.9997861981391907,
        -0.9999994039535522,
        -0.9993289709091187,
        -1.0
      ],
      "type": "VEC4"
    },
    {
      "bufferView": 1,
      "componentType": 5126,
      "count": 14070,
      "max": [
        0.9998973608016968,
        0.9978314638137817
      ],
      "min": [
        1.0162359103560448e-05,
        4.172325134277344e-07
      ],
      "type": "VEC2"
    },
    {
      "bufferView": 0,
      "componentType": 5125,
      "count": 71850,
      "type": "SCALAR"
    }
  ],
  "asset": {
    "extras": {
      "author": "rtql8d (https://sketchfab.com/rtql8d)",
      "license": "CC-BY-4.0 (http://creativecommons.org/licenses/by/4.0/)",
      "source": "https://sketchfab.com/3d-models/adidas-yeezy-boost-350-v2-shoe-oreo-cc0a5b21d6f744dba5751797f71e6f90",
      "title": "Adidas Yeezy Boost 350 v2 Shoe (Oreo)"
    },
    "generator": "Sketchfab-12.44.0",
    "version": "2.0"
  },
  "bufferViews": [
    {
      "buffer": 0,
      "byteLength": 287400,
      "name": "floatBufferViews",
      "target": 34963
    },
    {
      "buffer": 0,
      "byteLength": 112560,
      "byteOffset": 287400,
      "byteStride": 8,
      "name": "floatBufferViews",
      "target": 34962
    },
    {
      "buffer": 0,
      "byteLength": 337680,
      "byteOffset": 399960,
      "byteStride": 12,
      "name": "floatBufferViews",
      "target": 34962
    },
    {
      "buffer": 0,
      "byteLength": 225120,
      "byteOffset": 737640,
      "byteStride": 16,
      "name": "floatBufferViews",
      "target": 34962
    }
  ],
  "buffers": [
    {
      "byteLength": 962760,
      "uri": "scene.bin"
    }
  ],
  "images": [
    {
      "uri": "textures/material_baseColor.png"
    },
    {
      "uri": "textures/material_metallicRoughness.png"
    },
    {
      "uri": "textures/material_normal.png"
    }
  ],
  "materials": [
    {
      "name": "material",
      "normalTexture": {
        "index": 2
      },
      "occlusionTexture": {
        "index": 1
      },
      "pbrMetallicRoughness": {
        "baseColorTexture": {
          "index": 0
        },
        "metallicFactor": 0.0,
        "metallicRoughnessTexture": {
          "index": 1
        },
        "roughnessFactor": 0.9
      }
    }
  ],
  "meshes": [
    {
      "name": "Node_0",
      "primitives": [
        {
          "attributes": {
            "NORMAL": 1,
            "POSITION": 0,
            "TANGENT": 2,
            "TEXCOORD_0": 3
          },
          "indices": 4,
          "material": 0,
          "mode": 4
        }
      ]
    }
  ],
  "nodes": [
    {
      "children": [
        1
      ],
      "matrix": [
        -0.7493152022361755,
        1.3771326354256432e-17,
        0.6622135043144226,
        0.0,
        0.6622135043144226,
        -3.2719366034062445e-16,
        0.7493152022361755,
        0.0,
        2.269911185183188e-16,
        1.0,
        2.3605162646866737e-16,
        0.0,
        0.005306105595082045,
        -3.0128106008696624e-17,
        0.010684926994144917,
        1.0
      ],
      "name": "Sketchfab_model"
    },
    {
      "children": [
        2
      ],
      "matrix": [
        1.0,
        0.0,
        0.0,
        0.0,
        0.0,
        2.220446049250313e-16,
        1.0,
        0.0,
        0.0,
        -1.0,
        2.220446049250313e-16,
        0.0,
        0.0,
        0.0,
        0.0,
        1.0
      ],
      "name": "USDRoot"
    },
    {
      "children": [
        3
      ],
      "name": "export"
    },
    {
      "children": [
        4
      ],
      "name": "Geom"
    },
    {
      "mesh": 0,
      "name": "Node_0"
    }
  ],
  "samplers": [
    {
      "magFilter": 9729,
      "minFilter": 9987,
      "wrapS": 10497,
      "wrapT": 10497
    }
  ],
  "scene": 0,
  "scenes": [
    {
      "name": "Sketchfab_Scene",
      "nodes": [
        0
      ]
    }
  ],
  "textures": [
    {
      "sampler": 0,
      "source": 0
    },
    {
      "sampler": 0,
      "source": 1
    },
    {
      "sampler": 0,
      "source": 2
    }
  ]
}
